<svg width="29" height="20" viewBox="0 0 29 20" fill="none" xmlns="http://www.w3.org/2000/svg">
<path fill-rule="evenodd" clip-rule="evenodd" d="M28.406 3.05206C28.244 2.46554 27.9341 1.93044 27.506 1.49806C27.0805 1.06748 26.5506 0.754623 25.968 0.590056C23.786 -0.00094329 15.005 -0.00094329 15.005 -0.00094329C15.005 -0.00094329 6.249 -0.0159436 4.045 0.591056C3.46244 0.755623 2.93251 1.06848 2.507 1.49906C2.07888 1.93144 1.76898 2.46654 1.607 3.05306C1.19336 5.31072 0.989491 7.60182 0.997997 9.89705C0.991783 12.1828 1.19628 14.4648 1.6089 16.7135C1.77083 17.3002 2.08077 17.8355 2.509 18.2681C2.93451 18.6986 3.46444 19.0115 4.047 19.1761C6.226 19.7681 15.01 19.7681 15.01 19.7681C15.01 19.7681 23.767 19.7681 25.973 19.1761C26.5556 19.0115 27.0855 18.6986 27.511 18.2681C27.9391 17.8357 28.249 17.3006 28.411 16.7141C28.8143 14.4641 29.0094 12.1818 28.994 9.89605C29.0094 7.60175 28.8126 5.31066 28.406 3.05234L28.406 3.05206ZM12.205 14.1291V5.64906L19.513 9.89606L12.205 14.1291Z" fill="#B0B7C3"/>
</svg>
